{
  "accessors": [
    {
      "bufferView": 2,
      "componentType": 5126,
      "count": 4873,
      "max": [
        27.14310073852539,
        86.97244262695313,
        -22.99665069580078
      ],
      "min": [
        -27.14310073852539,
        58.187782287597656,
        -25.570354461669922
      ],
      "type": "VEC3"
    },
    {
      "bufferView": 2,
      "byteOffset": 58476,
      "componentType": 5126,
      "count": 4873,
      "max": [
        1.0,
        1.0,
        1.0
      ],
      "min": [
        -1.0,
        -1.0,
        -1.0
      ],
      "type": "VEC3"
    },
    {
      "bufferView": 3,
      "componentType": 5126,
      "count": 4873,
      "max": [
        1.0,
        1.0,
        1.0,
        1.0
      ],
      "min": [
        -1.0,
        -1.0,
        -1.0,
        1.0
      ],
      "type": "VEC4"
    },
    {
      "bufferView": 1,
      "componentType": 5126,
      "count": 4873,
      "max": [
        0.9992499947547913,
        0.9042559862136841
      ],
      "min": [
        0.000750000006519258,
        0.0004879999905824661
      ],
      "type": "VEC2"
    },
    {
      "bufferView": 0,
      "componentType": 5125,
      "count": 12876,
      "type": "SCALAR"
    },
    {
      "bufferView": 2,
      "byteOffset": 116952,
      "componentType": 5126,
      "count": 6832,
      "max": [
        26.721389770507813,
        82.14220428466797,
        25.375770568847656
      ],
      "min": [
        -26.721389770507813,
        0.44160500168800354,
        -27.716991424560547
      ],
      "type": "VEC3"
    },
    {
      "bufferView": 2,
      "byteOffset": 198936,
      "componentType": 5126,
      "count": 6832,
      "max": [
        1.0,
        1.0,
        1.0
      ],
      "min": [
        -1.0,
        -1.0,
        -1.0
      ],
      "type": "VEC3"
    },
    {
      "bufferView": 3,
      "byteOffset": 77968,
      "componentType": 5126,
      "count": 6832,
      "max": [
        1.0,
        1.0,
        1.0,
        1.0
      ],
      "min": [
        -0.9999999403953552,
        -1.0,
        -1.0,
        1.0
      ],
      "type": "VEC4"
    },
    {
      "bufferView": 1,
      "byteOffset": 38984,
      "componentType": 5126,
      "count": 6832,
      "max": [
        0.9874780178070068,
        0.9481350183486938
      ],
      "min": [
        0.000750000006519258,
        0.0004879999905824661
      ],
      "type": "VEC2"
    },
    {
      "bufferView": 0,
      "byteOffset": 51504,
      "componentType": 5125,
      "count": 26304,
      "type": "SCALAR"
    },
    {
      "bufferView": 2,
      "byteOffset": 280920,
      "componentType": 5126,
      "count": 148,
      "max": [
        23.12910270690918,
        48.07399368286133,
        24.467117309570313
      ],
      "min": [
        -23.12910270690918,
        43.60875701904297,
        -18.231515884399414
      ],
      "type": "VEC3"
    },
    {
      "bufferView": 2,
      "byteOffset": 282696,
      "componentType": 5126,
      "count": 148,
      "max": [
        1.0,
        1.0,
        1.0
      ],
      "min": [
        -1.0,
        -1.0,
        -1.0
      ],
      "type": "VEC3"
    },
    {
      "bufferView": 3,
      "byteOffset": 187280,
      "componentType": 5126,
      "count": 148,
      "max": [
        0.9525896310806274,
        1.0,
        1.0,
        1.0
      ],
      "min": [
        -0.952488899230957,
        -0.9999999403953552,
        -1.0,
        1.0
      ],
      "type": "VEC4"
    },
    {
      "bufferView": 1,
      "byteOffset": 93640,
      "componentType": 5126,
      "count": 148,
      "max": [
        0.7876449823379517,
        0.9578859806060791
      ],
      "min": [
        0.08963999897241592,
        0.4093030095100403
      ],
      "type": "VEC2"
    },
    {
      "bufferView": 0,
      "byteOffset": 156720,
      "componentType": 5125,
      "count": 540,
      "type": "SCALAR"
    },
    {
      "bufferView": 2,
      "byteOffset": 284472,
      "componentType": 5126,
      "count": 396,
      "max": [
        26.410234451293945,
        45.76580047607422,
        24.735427856445313
      ],
      "min": [
        -26.410234451293945,
        37.568756103515625,
        -18.499828338623047
      ],
      "type": "VEC3"
    },
    {
      "bufferView": 2,
      "byteOffset": 289224,
      "componentType": 5126,
      "count": 396,
      "max": [
        1.0,
        1.0,
        1.0
      ],
      "min": [
        -1.0,
        -1.0,
        -1.0
      ],
      "type": "VEC3"
    },
    {
      "bufferView": 3,
      "byteOffset": 189648,
      "componentType": 5126,
      "count": 396,
      "max": [
        1.0,
        1.0,
        1.0,
        1.0
      ],
      "min": [
        -1.0,
        -1.0,
        -1.0,
        1.0
      ],
      "type": "VEC4"
    },
    {
      "bufferView": 1,
      "byteOffset": 94824,
      "componentType": 5126,
      "count": 396,
      "max": [
        0.9034900069236755,
        0.9995120167732239
      ],
      "min": [
        0.000750000006519258,
        0.0004879999905824661
      ],
      "type": "VEC2"
    },
    {
      "bufferView": 0,
      "byteOffset": 158880,
      "componentType": 5125,
      "count": 858,
      "type": "SCALAR"
    }
  ],
  "asset": {
    "extras": {
      "author": "aya.albayati (https://sketchfab.com/aya.albayati)",
      "license": "CC-BY-4.0 (http://creativecommons.org/licenses/by/4.0/)",
      "source": "https://sketchfab.com/3d-models/victorian-style-chair-5a080539c53b40c8b257b57c5677e2f0",
      "title": "Victorian Style Chair"
    },
    "generator": "Sketchfab-12.64.0",
    "version": "2.0"
  },
  "bufferViews": [
    {
      "buffer": 0,
      "byteLength": 162312,
      "name": "floatBufferViews",
      "target": 34963
    },
    {
      "buffer": 0,
      "byteLength": 97992,
      "byteOffset": 162312,
      "byteStride": 8,
      "name": "floatBufferViews",
      "target": 34962
    },
    {
      "buffer": 0,
      "byteLength": 293976,
      "byteOffset": 260304,
      "byteStride": 12,
      "name": "floatBufferViews",
      "target": 34962
    },
    {
      "buffer": 0,
      "byteLength": 195984,
      "byteOffset": 554280,
      "byteStride": 16,
      "name": "floatBufferViews",
      "target": 34962
    }
  ],
  "buffers": [
    {
      "byteLength": 750264,
      "uri": "scene.bin"
    }
  ],
  "images": [
    {
      "uri": "textures/1001_baseColor.jpeg"
    },
    {
      "uri": "textures/1001_metallicRoughness.png"
    },
    {
      "uri": "textures/1001_normal.png"
    }
  ],
  "materials": [
    {
      "doubleSided": true,
      "name": "1001",
      "normalTexture": {
        "index": 2
      },
      "occlusionTexture": {
        "index": 1
      },
      "pbrMetallicRoughness": {
        "baseColorTexture": {
          "index": 0
        },
        "metallicRoughnessTexture": {
          "index": 1
        }
      }
    }
  ],
  "meshes": [
    {
      "name": "defaultMaterial",
      "primitives": [
        {
          "attributes": {
            "NORMAL": 1,
            "POSITION": 0,
            "TANGENT": 2,
            "TEXCOORD_0": 3
          },
          "indices": 4,
          "material": 0,
          "mode": 4
        }
      ]
    },
    {
      "name": "defaultMaterial",
      "primitives": [
        {
          "attributes": {
            "NORMAL": 6,
            "POSITION": 5,
            "TANGENT": 7,
            "TEXCOORD_0": 8
          },
          "indices": 9,
          "material": 0,
          "mode": 4
        }
      ]
    },
    {
      "name": "defaultMaterial",
      "primitives": [
        {
          "attributes": {
            "NORMAL": 11,
            "POSITION": 10,
            "TANGENT": 12,
            "TEXCOORD_0": 13
          },
          "indices": 14,
          "material": 0,
          "mode": 4
        }
      ]
    },
    {
      "name": "defaultMaterial",
      "primitives": [
        {
          "attributes": {
            "NORMAL": 16,
            "POSITION": 15,
            "TANGENT": 17,
            "TEXCOORD_0": 18
          },
          "indices": 19,
          "material": 0,
          "mode": 4
        }
      ]
    }
  ],
  "nodes": [
    {
      "children": [
        1
      ],
      "matrix": [
        1.0,
        0.0,
        0.0,
        0.0,
        0.0,
        2.220446049250313e-16,
        -1.0,
        0.0,
        0.0,
        1.0,
        2.220446049250313e-16,
        0.0,
        0.0,
        0.0,
        0.0,
        1.0
      ],
      "name": "Sketchfab_model"
    },
    {
      "children": [
        2
      ],
      "matrix": [
        1.0,
        0.0,
        0.0,
        0.0,
        0.0,
        -4.371139006309477e-08,
        0.999999999999999,
        0.0,
        0.0,
        -0.999999999999999,
        -4.371139006309477e-08,
        0.0,
        0.0,
        0.0,
        0.0,
        1.0
      ],
      "name": "Collada visual scene group"
    },
    {
      "children": [
        3,
        5,
        7,
        9
      ],
      "name": "LP"
    },
    {
      "children": [
        4
      ],
      "name": "BackFrame_LP"
    },
    {
      "mesh": 0,
      "name": "defaultMaterial"
    },
    {
      "children": [
        6
      ],
      "name": "ArmsandLegs_LP"
    },
    {
      "mesh": 1,
      "name": "defaultMaterial"
    },
    {
      "children": [
        8
      ],
      "name": "Cushion_LP"
    },
    {
      "mesh": 2,
      "name": "defaultMaterial"
    },
    {
      "children": [
        10
      ],
      "name": "Seat_LP"
    },
    {
      "mesh": 3,
      "name": "defaultMaterial"
    }
  ],
  "samplers": [
    {
      "magFilter": 9729,
      "minFilter": 9987,
      "wrapS": 10497,
      "wrapT": 10497
    }
  ],
  "scene": 0,
  "scenes": [
    {
      "name": "Sketchfab_Scene",
      "nodes": [
        0
      ]
    }
  ],
  "textures": [
    {
      "sampler": 0,
      "source": 0
    },
    {
      "sampler": 0,
      "source": 1
    },
    {
      "sampler": 0,
      "source": 2
    }
  ]
}
