{
  "accessors": [
    {
      "bufferView": 2,
      "componentType": 5126,
      "count": 65532,
      "max": [
        12.193699836730957,
        12.607199668884277,
        20.97879981994629
      ],
      "min": [
        -12.462499618530273,
        -12.709199905395508,
        -0.40790000557899475
      ],
      "type": "VEC3"
    },
    {
      "bufferView": 2,
      "byteOffset": 786384,
      "componentType": 5126,
      "count": 65532,
      "max": [
        0.9999872446060181,
        0.999994158744812,
        0.9996458888053894
      ],
      "min": [
        -0.9999995231628418,
        -0.9999436140060425,
        -0.9997500777244568
      ],
      "type": "VEC3"
    },
    {
      "bufferView": 3,
      "componentType": 5126,
      "count": 65532,
      "max": [
        0.9999825954437256,
        0.9999999403953552,
        0.999999463558197,
        1.0
      ],
      "min": [
        -0.9999961853027344,
        -0.9999964237213135,
        -0.9999992847442627,
        -1.0
      ],
      "type": "VEC4"
    },
    {
      "bufferView": 1,
      "componentType": 5126,
      "count": 65532,
      "max": [
        0.9901999831199646,
        0.9283999800682068
      ],
      "min": [
        0.011900000274181366,
        0.024900000542402267
      ],
      "type": "VEC2"
    },
    {
      "bufferView": 0,
      "componentType": 5125,
      "count": 282852,
      "type": "SCALAR"
    },
    {
      "bufferView": 2,
      "byteOffset": 1572768,
      "componentType": 5126,
      "count": 65533,
      "max": [
        13.294500350952148,
        13.302000045776367,
        22.287500381469727
      ],
      "min": [
        -13.294500350952148,
        -13.302000045776367,
        7.877699851989746
      ],
      "type": "VEC3"
    },
    {
      "bufferView": 2,
      "byteOffset": 2359164,
      "componentType": 5126,
      "count": 65533,
      "max": [
        0.9999985694885254,
        0.9999973773956299,
        1.0
      ],
      "min": [
        -0.9999985694885254,
        -0.9999985694885254,
        -1.0
      ],
      "type": "VEC3"
    },
    {
      "bufferView": 3,
      "byteOffset": 1048512,
      "componentType": 5126,
      "count": 65533,
      "max": [
        0.9999987483024597,
        1.0,
        0.9999995827674866,
        1.0
      ],
      "min": [
        -0.999998152256012,
        -1.0,
        -1.0,
        -1.0
      ],
      "type": "VEC4"
    },
    {
      "bufferView": 1,
      "byteOffset": 524256,
      "componentType": 5126,
      "count": 65533,
      "max": [
        0.9955999851226807,
        0.9945999979972839
      ],
      "min": [
        0.011900000274181366,
        0.023399999365210533
      ],
      "type": "VEC2"
    },
    {
      "bufferView": 0,
      "byteOffset": 1131408,
      "componentType": 5125,
      "count": 201420,
      "type": "SCALAR"
    },
    {
      "bufferView": 2,
      "byteOffset": 3145560,
      "componentType": 5126,
      "count": 19035,
      "max": [
        12.193699836730957,
        12.279199600219727,
        17.866100311279297
      ],
      "min": [
        -12.611700057983398,
        -12.65880012512207,
        7.143899917602539
      ],
      "type": "VEC3"
    },
    {
      "bufferView": 2,
      "byteOffset": 3373980,
      "componentType": 5126,
      "count": 19035,
      "max": [
        0.9996818900108337,
        0.9997662901878357,
        0.9993329048156738
      ],
      "min": [
        -0.9996818900108337,
        -0.9993598461151123,
        -0.9918493032455444
      ],
      "type": "VEC3"
    },
    {
      "bufferView": 3,
      "byteOffset": 2097040,
      "componentType": 5126,
      "count": 19035,
      "max": [
        0.999991238117218,
        0.9999999403953552,
        0.999964714050293,
        1.0
      ],
      "min": [
        -0.9999719262123108,
        -1.0,
        -0.9999985694885254,
        -1.0
      ],
      "type": "VEC4"
    },
    {
      "bufferView": 1,
      "byteOffset": 1048520,
      "componentType": 5126,
      "count": 19035,
      "max": [
        0.9940999746322632,
        0.992900013923645
      ],
      "min": [
        0.6654999852180481,
        0.6879000067710876
      ],
      "type": "VEC2"
    },
    {
      "bufferView": 0,
      "byteOffset": 1937088,
      "componentType": 5125,
      "count": 24960,
      "type": "SCALAR"
    }
  ],
  "asset": {
    "extras": {
      "author": "Tyron (https://sketchfab.com/Omty)",
      "license": "CC-BY-4.0 (http://creativecommons.org/licenses/by/4.0/)",
      "source": "https://sketchfab.com/3d-models/antique-table-f01054c29829452a9f87437de57a3f6f",
      "title": "Antique Table"
    },
    "generator": "Sketchfab-12.68.0",
    "version": "2.0"
  },
  "bufferViews": [
    {
      "buffer": 0,
      "byteLength": 2036928,
      "name": "floatBufferViews",
      "target": 34963
    },
    {
      "buffer": 0,
      "byteLength": 1200800,
      "byteOffset": 2036928,
      "byteStride": 8,
      "name": "floatBufferViews",
      "target": 34962
    },
    {
      "buffer": 0,
      "byteLength": 3602400,
      "byteOffset": 3237728,
      "byteStride": 12,
      "name": "floatBufferViews",
      "target": 34962
    },
    {
      "buffer": 0,
      "byteLength": 2401600,
      "byteOffset": 6840128,
      "byteStride": 16,
      "name": "floatBufferViews",
      "target": 34962
    }
  ],
  "buffers": [
    {
      "byteLength": 9241728,
      "uri": "scene.bin"
    }
  ],
  "images": [
    {
      "uri": "textures/defaultMat_baseColor.png"
    },
    {
      "uri": "textures/defaultMat_metallicRoughness.png"
    },
    {
      "uri": "textures/defaultMat_normal.png"
    }
  ],
  "materials": [
    {
      "doubleSided": true,
      "name": "defaultMat",
      "normalTexture": {
        "index": 2
      },
      "pbrMetallicRoughness": {
        "baseColorTexture": {
          "index": 0
        },
        "metallicRoughnessTexture": {
          "index": 1
        }
      }
    }
  ],
  "meshes": [
    {
      "name": "Object_0",
      "primitives": [
        {
          "attributes": {
            "NORMAL": 1,
            "POSITION": 0,
            "TANGENT": 2,
            "TEXCOORD_0": 3
          },
          "indices": 4,
          "material": 0,
          "mode": 4
        }
      ]
    },
    {
      "name": "Object_1",
      "primitives": [
        {
          "attributes": {
            "NORMAL": 6,
            "POSITION": 5,
            "TANGENT": 7,
            "TEXCOORD_0": 8
          },
          "indices": 9,
          "material": 0,
          "mode": 4
        }
      ]
    },
    {
      "name": "Object_2",
      "primitives": [
        {
          "attributes": {
            "NORMAL": 11,
            "POSITION": 10,
            "TANGENT": 12,
            "TEXCOORD_0": 13
          },
          "indices": 14,
          "material": 0,
          "mode": 4
        }
      ]
    }
  ],
  "nodes": [
    {
      "children": [
        1
      ],
      "matrix": [
        1.0,
        0.0,
        0.0,
        0.0,
        0.0,
        2.220446049250313e-16,
        -1.0,
        0.0,
        0.0,
        1.0,
        2.220446049250313e-16,
        0.0,
        0.0,
        0.0,
        0.0,
        1.0
      ],
      "name": "Sketchfab_model"
    },
    {
      "children": [
        2,
        3,
        4
      ],
      "name": "Antiquetable_Unwrapped.obj.cleaner.gles"
    },
    {
      "mesh": 0,
      "name": "Object_2"
    },
    {
      "mesh": 1,
      "name": "Object_3"
    },
    {
      "mesh": 2,
      "name": "Object_4"
    }
  ],
  "samplers": [
    {
      "magFilter": 9729,
      "minFilter": 9987,
      "wrapS": 10497,
      "wrapT": 10497
    }
  ],
  "scene": 0,
  "scenes": [
    {
      "name": "Sketchfab_Scene",
      "nodes": [
        0
      ]
    }
  ],
  "textures": [
    {
      "sampler": 0,
      "source": 0
    },
    {
      "sampler": 0,
      "source": 1
    },
    {
      "sampler": 0,
      "source": 2
    }
  ]
}
